<svg width="2048" height="2048" viewBox="0 0 2048 2048" fill="none" xmlns="http://www.w3.org/2000/svg">
<rect width="1096.81" height="1096.81" rx="200" transform="matrix(0.561049 0.827782 -0.557334 0.830289 611.29 115.264)" fill="url(#paint0_linear_1_2)"/>
<rect x="1104.39" y="234.043" width="179.432" height="18.9541" rx="9.47706" fill="url(#paint1_linear_1_2)"/>
<rect x="844.09" y="810.248" width="179.432" height="18.9541" rx="9.47706" fill="url(#paint2_linear_1_2)"/>
<rect x="581.26" y="1404.14" width="179.432" height="18.9541" rx="9.47706" fill="url(#paint3_linear_1_2)"/>
<rect x="959.078" y="1394.03" width="179.432" height="18.9541" rx="9.47706" fill="url(#paint4_linear_1_2)"/>
<rect x="491.543" y="1540.61" width="179.432" height="18.9541" rx="9.47706" fill="url(#paint5_linear_1_2)"/>
<rect x="760.692" y="1654.34" width="179.432" height="18.9541" rx="9.47706" fill="url(#paint6_linear_1_2)"/>
<rect x="1079.12" y="1779.43" width="179.432" height="18.9541" rx="9.47706" fill="url(#paint7_linear_1_2)"/>
<rect x="989.405" y="1591.16" width="179.432" height="18.9541" rx="9.47706" fill="url(#paint8_linear_1_2)"/>
<rect x="581.26" y="479.183" width="179.432" height="18.9541" rx="9.47706" fill="url(#paint9_linear_1_2)"/>
<rect x="933.806" y="512.036" width="179.432" height="18.9541" rx="9.47706" fill="url(#paint10_linear_1_2)"/>
<rect x="844.09" y="354.085" width="179.432" height="18.9541" rx="9.47706" fill="url(#paint11_linear_1_2)"/>
<rect x="641.913" y="648.506" width="179.432" height="18.9541" rx="9.47706" fill="url(#paint12_linear_1_2)"/>
<rect x="581.26" y="922.709" width="179.432" height="18.9541" rx="9.47706" fill="url(#paint13_linear_1_2)"/>
<rect x="432.154" y="753.385" width="179.432" height="18.9541" rx="9.47706" fill="url(#paint14_linear_1_2)"/>
<rect x="312.111" y="1079.4" width="179.432" height="18.9541" rx="9.47706" fill="url(#paint15_linear_1_2)"/>
<rect x="491.543" y="1234.82" width="179.432" height="18.9541" rx="9.47706" fill="url(#paint16_linear_1_2)"/>
<rect x="779.646" y="1291.68" width="179.432" height="18.9541" rx="9.47706" fill="url(#paint17_linear_1_2)"/>
<rect x="844.09" y="1156.48" width="179.432" height="18.9541" rx="9.47706" fill="url(#paint18_linear_1_2)"/>
<rect width="1096.81" height="1096.81" rx="200" transform="matrix(0.561049 0.827782 -0.557334 0.830289 1432.63 114)" fill="url(#paint19_linear_1_2)"/>
<defs>
<linearGradient id="paint0_linear_1_2" x1="998.072" y1="100.701" x2="720.991" y2="1192.37" gradientUnits="userSpaceOnUse">
<stop/>
<stop offset="1" stop-color="#999999"/>
</linearGradient>
<linearGradient id="paint1_linear_1_2" x1="1069.64" y1="244.152" x2="1283.83" y2="243.52" gradientUnits="userSpaceOnUse">
<stop stop-color="white" stop-opacity="0"/>
<stop offset="1" stop-color="white"/>
</linearGradient>
<linearGradient id="paint2_linear_1_2" x1="809.341" y1="820.357" x2="1023.52" y2="819.725" gradientUnits="userSpaceOnUse">
<stop stop-color="white" stop-opacity="0"/>
<stop offset="1" stop-color="white"/>
</linearGradient>
<linearGradient id="paint3_linear_1_2" x1="546.51" y1="1414.25" x2="760.692" y2="1413.62" gradientUnits="userSpaceOnUse">
<stop stop-color="white" stop-opacity="0"/>
<stop offset="1" stop-color="white"/>
</linearGradient>
<linearGradient id="paint4_linear_1_2" x1="924.329" y1="1404.14" x2="1138.51" y2="1403.51" gradientUnits="userSpaceOnUse">
<stop stop-color="white" stop-opacity="0"/>
<stop offset="1" stop-color="white"/>
</linearGradient>
<linearGradient id="paint5_linear_1_2" x1="456.794" y1="1550.72" x2="670.976" y2="1550.09" gradientUnits="userSpaceOnUse">
<stop stop-color="white" stop-opacity="0"/>
<stop offset="1" stop-color="white"/>
</linearGradient>
<linearGradient id="paint6_linear_1_2" x1="725.943" y1="1664.45" x2="940.124" y2="1663.81" gradientUnits="userSpaceOnUse">
<stop stop-color="white" stop-opacity="0"/>
<stop offset="1" stop-color="white"/>
</linearGradient>
<linearGradient id="paint7_linear_1_2" x1="1044.37" y1="1789.54" x2="1258.55" y2="1788.91" gradientUnits="userSpaceOnUse">
<stop stop-color="white" stop-opacity="0"/>
<stop offset="1" stop-color="white"/>
</linearGradient>
<linearGradient id="paint8_linear_1_2" x1="954.656" y1="1601.27" x2="1168.84" y2="1600.63" gradientUnits="userSpaceOnUse">
<stop stop-color="white" stop-opacity="0"/>
<stop offset="1" stop-color="white"/>
</linearGradient>
<linearGradient id="paint9_linear_1_2" x1="546.51" y1="489.291" x2="760.692" y2="488.66" gradientUnits="userSpaceOnUse">
<stop stop-color="white" stop-opacity="0"/>
<stop offset="1" stop-color="white"/>
</linearGradient>
<linearGradient id="paint10_linear_1_2" x1="899.057" y1="522.145" x2="1113.24" y2="521.513" gradientUnits="userSpaceOnUse">
<stop stop-color="white" stop-opacity="0"/>
<stop offset="1" stop-color="white"/>
</linearGradient>
<linearGradient id="paint11_linear_1_2" x1="809.341" y1="364.194" x2="1023.52" y2="363.562" gradientUnits="userSpaceOnUse">
<stop stop-color="white" stop-opacity="0"/>
<stop offset="1" stop-color="white"/>
</linearGradient>
<linearGradient id="paint12_linear_1_2" x1="607.163" y1="658.615" x2="821.345" y2="657.983" gradientUnits="userSpaceOnUse">
<stop stop-color="white" stop-opacity="0"/>
<stop offset="1" stop-color="white"/>
</linearGradient>
<linearGradient id="paint13_linear_1_2" x1="546.51" y1="932.818" x2="760.692" y2="932.186" gradientUnits="userSpaceOnUse">
<stop stop-color="white" stop-opacity="0"/>
<stop offset="1" stop-color="white"/>
</linearGradient>
<linearGradient id="paint14_linear_1_2" x1="397.405" y1="763.494" x2="611.586" y2="762.862" gradientUnits="userSpaceOnUse">
<stop stop-color="white" stop-opacity="0"/>
<stop offset="1" stop-color="white"/>
</linearGradient>
<linearGradient id="paint15_linear_1_2" x1="277.362" y1="1089.51" x2="491.543" y2="1088.87" gradientUnits="userSpaceOnUse">
<stop stop-color="white" stop-opacity="0"/>
<stop offset="1" stop-color="white"/>
</linearGradient>
<linearGradient id="paint16_linear_1_2" x1="456.794" y1="1244.93" x2="670.976" y2="1244.3" gradientUnits="userSpaceOnUse">
<stop stop-color="white" stop-opacity="0"/>
<stop offset="1" stop-color="white"/>
</linearGradient>
<linearGradient id="paint17_linear_1_2" x1="744.897" y1="1301.79" x2="959.078" y2="1301.16" gradientUnits="userSpaceOnUse">
<stop stop-color="white" stop-opacity="0"/>
<stop offset="1" stop-color="white"/>
</linearGradient>
<linearGradient id="paint18_linear_1_2" x1="809.341" y1="1166.58" x2="1023.52" y2="1165.95" gradientUnits="userSpaceOnUse">
<stop stop-color="white" stop-opacity="0"/>
<stop offset="1" stop-color="white"/>
</linearGradient>
<linearGradient id="paint19_linear_1_2" x1="932.493" y1="-40.1341" x2="935.605" y2="767.102" gradientUnits="userSpaceOnUse">
<stop stop-color="white" stop-opacity="0.5"/>
<stop offset="1" stop-color="white"/>
</linearGradient>
</defs>
</svg>
